<svg width="23" height="23" viewBox="0 0 23 23" fill="none" xmlns="http://www.w3.org/2000/svg">
<path d="M11.4998 20.1249C10.2894 19.0925 9.16744 17.9606 8.14567 16.7411C6.61234 14.9097 4.7915 12.1823 4.7915 9.58328C4.79084 8.25595 5.18395 6.95826 5.92109 5.85443C6.65822 4.7506 7.70625 3.89026 8.93253 3.38229C10.1588 2.87431 11.5082 2.74154 12.81 3.00077C14.1118 3.26 15.3074 3.89958 16.2455 4.83857C16.8701 5.46039 17.3652 6.19992 17.7021 7.01435C18.039 7.82877 18.211 8.70193 18.2082 9.58328C18.2082 12.1823 16.3873 14.9097 14.854 16.7411C13.8322 17.9606 12.7103 19.0925 11.4998 20.1249ZM11.4998 6.70828C10.7373 6.70828 10.0061 7.01118 9.46691 7.55035C8.92774 8.08951 8.62484 8.82078 8.62484 9.58328C8.62484 10.3458 8.92774 11.077 9.46691 11.6162C10.0061 12.1554 10.7373 12.4583 11.4998 12.4583C12.2623 12.4583 12.9936 12.1554 13.5328 11.6162C14.0719 11.077 14.3748 10.3458 14.3748 9.58328C14.3748 8.82078 14.0719 8.08951 13.5328 7.55035C12.9936 7.01118 12.2623 6.70828 11.4998 6.70828Z" fill="#D7B56D"/>
</svg>
