<svg width="18" height="18" viewBox="0 0 18 18" fill="none" xmlns="http://www.w3.org/2000/svg">
<g clip-path="url(#clip0_1_1545)">
<path d="M8.7998 12.16L7.5698 13.38C7.1955 13.7495 6.69073 13.9566 6.1648 13.9566C5.63887 13.9566 5.1341 13.7495 4.7598 13.38C4.57733 13.1979 4.43256 12.9817 4.33378 12.7436C4.235 12.5055 4.18416 12.2503 4.18416 11.9925C4.18416 11.7347 4.235 11.4795 4.33378 11.2414C4.43256 11.0033 4.57733 10.7871 4.7598 10.605L7.1048 8.28001C7.4791 7.91054 7.98387 7.70337 8.5098 7.70337C9.03573 7.70337 9.5405 7.91054 9.9148 8.28001C10.153 8.51666 10.3253 8.81136 10.4148 9.13501C10.464 9.09441 10.5092 9.04921 10.5498 9.00001L11.1948 8.36001C11.0504 8.0594 10.8559 7.7855 10.6198 7.55001C10.0581 6.99429 9.29992 6.68259 8.5098 6.68259C7.71968 6.68259 6.96146 6.99429 6.3998 7.55001L4.0498 9.89501C3.773 10.1697 3.5533 10.4965 3.40338 10.8564C3.25346 11.2164 3.17627 11.6025 3.17627 11.9925C3.17627 12.3825 3.25346 12.7686 3.40338 13.1286C3.5533 13.4886 3.773 13.8153 4.0498 14.09C4.61146 14.6457 5.36968 14.9574 6.1598 14.9574C6.94992 14.9574 7.70814 14.6457 8.2698 14.09L10.0948 12.28H9.8448C9.4927 12.2862 9.14133 12.2458 8.7998 12.16Z" fill="#929493"/>
<path d="M14.3048 3.90999C13.7431 3.35428 12.9849 3.04257 12.1948 3.04257C11.4047 3.04257 10.6464 3.35428 10.0848 3.90999L8.25979 5.71999H8.50479C8.85944 5.7199 9.21254 5.76698 9.55479 5.85999L10.7848 4.63999C11.1591 4.27052 11.6639 4.06336 12.1898 4.06336C12.7157 4.06336 13.2205 4.27052 13.5948 4.63999C13.7773 4.82205 13.922 5.03832 14.0208 5.27641C14.1196 5.51449 14.1704 5.76973 14.1704 6.02749C14.1704 6.28526 14.1196 6.54049 14.0208 6.77858C13.922 7.01666 13.7773 7.23293 13.5948 7.41499L11.2498 9.73999C10.8755 10.1095 10.3707 10.3166 9.84479 10.3166C9.31885 10.3166 8.81408 10.1095 8.43978 9.73999C8.20158 9.50334 8.02924 9.20863 7.93979 8.88499C7.88973 8.91901 7.84288 8.9575 7.79979 8.99999L7.15479 9.63999C7.29921 9.9406 7.49364 10.2145 7.72978 10.45C8.29145 11.0057 9.04967 11.3174 9.83979 11.3174C10.6299 11.3174 11.3881 11.0057 11.9498 10.45L14.2948 8.12499C14.571 7.84997 14.7901 7.5231 14.9397 7.16315C15.0892 6.80321 15.1662 6.41727 15.1662 6.02749C15.1662 5.63772 15.0892 5.25178 14.9397 4.89183C14.7901 4.53188 14.571 4.20502 14.2948 3.92999L14.3048 3.90999Z" fill="#929493"/>
</g>
<defs>
<clipPath id="clip0_1_1545">
<rect width="18" height="18" fill="white"/>
</clipPath>
</defs>
</svg>
