<svg width="12" height="12" viewBox="0 0 12 12" fill="none" xmlns="http://www.w3.org/2000/svg">
<path d="M4.07908 10.4958L9.5 5.07483L6.92517 2.5L1.50425 7.92092C1.42962 7.99564 1.37661 8.08917 1.35083 8.19158L0.75 11.25L3.80783 10.6492C3.9105 10.6235 4.00442 10.5704 4.07908 10.4958ZM11.25 3.32483C11.4687 3.10605 11.5916 2.80936 11.5916 2.5C11.5916 2.19064 11.4687 1.89395 11.25 1.67517L10.3248 0.750001C10.1061 0.531285 9.80936 0.408417 9.5 0.408417C9.19064 0.408417 8.89395 0.531285 8.67517 0.750001L7.75 1.67517L10.3248 4.25L11.25 3.32483Z" fill="white"/>
</svg>
